<mxfile host="65bd71144e">
    <diagram id="f106602c-feb2-e66a-4537-3a34d633f6aa" name="Page-1">
        <mxGraphModel dx="523" dy="271" grid="1" gridSize="10" guides="1" tooltips="1" connect="1" arrows="1" fold="1" page="1" pageScale="1" pageWidth="1169" pageHeight="827" background="none" math="0" shadow="0">
            <root>
                <mxCell id="0"/>
                <mxCell id="1" parent="0"/>
                <mxCell id="2" value="Architecture: poster app" style="fillColor=#4DA1F5;strokeColor=none;shadow=1;gradientColor=none;fontSize=14;align=left;spacingLeft=50;fontColor=#ffffff;html=1;" parent="1" vertex="1">
                    <mxGeometry x="190" y="20" width="831" height="40" as="geometry"/>
                </mxCell>
                <mxCell id="507" style="edgeStyle=orthogonalEdgeStyle;rounded=0;html=1;labelBackgroundColor=none;startArrow=blockThin;startFill=1;endArrow=blockThin;endFill=1;jettySize=auto;orthogonalLoop=1;strokeColor=#4284F3;strokeWidth=2;fontSize=10;fontColor=#999999;align=center;dashed=0;endSize=4;startSize=4;" parent="1" source="495" target="497" edge="1">
                    <mxGeometry relative="1" as="geometry">
                        <Array as="points">
                            <mxPoint x="310" y="330"/>
                            <mxPoint x="310" y="330"/>
                        </Array>
                    </mxGeometry>
                </mxCell>
                <mxCell id="495" value="Clients" style="strokeColor=#dddddd;fillColor=#ffffff;shadow=1;strokeWidth=1;rounded=1;absoluteArcSize=1;arcSize=2;labelPosition=center;verticalLabelPosition=middle;align=center;verticalAlign=bottom;spacingLeft=0;fontColor=#999999;fontSize=12;whiteSpace=wrap;spacingBottom=2;html=1;" parent="1" vertex="1">
                    <mxGeometry x="120" y="287.5" width="70" height="85" as="geometry"/>
                </mxCell>
                <mxCell id="496" value="" style="dashed=0;connectable=0;html=1;fillColor=#757575;strokeColor=none;shape=mxgraph.gcp2.laptop;part=1;" parent="495" vertex="1">
                    <mxGeometry x="0.5" width="50" height="33" relative="1" as="geometry">
                        <mxPoint x="-25" y="18.5" as="offset"/>
                    </mxGeometry>
                </mxCell>
                <mxCell id="509" style="edgeStyle=orthogonalEdgeStyle;rounded=0;html=1;labelBackgroundColor=none;startArrow=blockThin;startFill=1;endArrow=blockThin;endFill=1;jettySize=auto;orthogonalLoop=1;strokeColor=#4284F3;strokeWidth=2;fontSize=10;fontColor=#999999;align=center;dashed=0;endSize=4;startSize=4;exitX=1;exitY=0.5;exitDx=0;exitDy=0;entryX=0;entryY=0.5;entryDx=0;entryDy=0;" parent="1" source="495" target="FR1XyxJ5QNdVu9Rfvc06-522" edge="1">
                    <mxGeometry relative="1" as="geometry">
                        <mxPoint x="350" y="240" as="targetPoint"/>
                        <Array as="points">
                            <mxPoint x="190" y="360"/>
                            <mxPoint x="340" y="360"/>
                            <mxPoint x="340" y="402"/>
                        </Array>
                    </mxGeometry>
                </mxCell>
                <mxCell id="FR1XyxJ5QNdVu9Rfvc06-528" value="" style="edgeStyle=orthogonalEdgeStyle;rounded=0;orthogonalLoop=1;jettySize=auto;html=1;" parent="1" source="497" edge="1">
                    <mxGeometry relative="1" as="geometry">
                        <mxPoint x="700" y="322" as="targetPoint"/>
                        <Array as="points">
                            <mxPoint x="680" y="322"/>
                            <mxPoint x="680" y="322"/>
                        </Array>
                    </mxGeometry>
                </mxCell>
                <mxCell id="497" value="" style="strokeColor=#dddddd;fillColor=#ffffff;shadow=1;strokeWidth=1;rounded=1;absoluteArcSize=1;arcSize=2;fontSize=10;fontColor=#999999;align=left;html=1;" parent="1" vertex="1">
                    <mxGeometry x="370" y="300" width="171" height="44" as="geometry"/>
                </mxCell>
                <mxCell id="498" value="user API" style="dashed=0;connectable=0;html=1;fillColor=#757575;strokeColor=none;shape=mxgraph.gcp2.frontend_platform_services;part=1;labelPosition=right;verticalLabelPosition=middle;align=left;verticalAlign=middle;spacingLeft=5;fontColor=#000000;fontSize=12;" parent="497" vertex="1">
                    <mxGeometry y="0.5" width="32" height="32" relative="1" as="geometry">
                        <mxPoint x="5" y="-16" as="offset"/>
                    </mxGeometry>
                </mxCell>
                <mxCell id="FR1XyxJ5QNdVu9Rfvc06-516" value="" style="strokeColor=#dddddd;fillColor=#ffffff;shadow=1;strokeWidth=1;rounded=1;absoluteArcSize=1;arcSize=2;fontSize=10;fontColor=#999999;align=left;html=1;" parent="1" vertex="1">
                    <mxGeometry x="370" y="200" width="240" height="52.5" as="geometry"/>
                </mxCell>
                <mxCell id="FR1XyxJ5QNdVu9Rfvc06-517" value="authentication API&lt;br&gt;.+" style="dashed=0;connectable=0;html=1;fillColor=#757575;strokeColor=none;shape=mxgraph.gcp2.frontend_platform_services;part=1;labelPosition=right;verticalLabelPosition=middle;align=left;verticalAlign=middle;spacingLeft=5;fontColor=#000000;fontSize=12;" parent="FR1XyxJ5QNdVu9Rfvc06-516" vertex="1">
                    <mxGeometry y="0.5" width="32" height="32" relative="1" as="geometry">
                        <mxPoint x="5" y="-16" as="offset"/>
                    </mxGeometry>
                </mxCell>
                <mxCell id="FR1XyxJ5QNdVu9Rfvc06-518" style="edgeStyle=orthogonalEdgeStyle;rounded=0;html=1;labelBackgroundColor=none;startArrow=blockThin;startFill=1;endArrow=blockThin;endFill=1;jettySize=auto;orthogonalLoop=1;strokeColor=#4284F3;strokeWidth=2;fontSize=10;fontColor=#999999;align=center;dashed=0;endSize=4;startSize=4;exitX=1.006;exitY=0.083;exitDx=0;exitDy=0;exitPerimeter=0;" parent="1" source="495" target="FR1XyxJ5QNdVu9Rfvc06-516" edge="1">
                    <mxGeometry relative="1" as="geometry">
                        <mxPoint x="210" y="292" as="sourcePoint"/>
                        <mxPoint x="350" y="100" as="targetPoint"/>
                        <Array as="points">
                            <mxPoint x="340" y="295"/>
                            <mxPoint x="340" y="240"/>
                        </Array>
                    </mxGeometry>
                </mxCell>
                <mxCell id="FR1XyxJ5QNdVu9Rfvc06-530" value="" style="edgeStyle=orthogonalEdgeStyle;rounded=0;orthogonalLoop=1;jettySize=auto;html=1;" parent="1" source="FR1XyxJ5QNdVu9Rfvc06-522" edge="1">
                    <mxGeometry relative="1" as="geometry">
                        <mxPoint x="700" y="402" as="targetPoint"/>
                        <Array as="points">
                            <mxPoint x="621" y="402"/>
                            <mxPoint x="621" y="400"/>
                            <mxPoint x="700" y="400"/>
                        </Array>
                    </mxGeometry>
                </mxCell>
                <mxCell id="FR1XyxJ5QNdVu9Rfvc06-522" value="" style="strokeColor=#dddddd;fillColor=#ffffff;shadow=1;strokeWidth=1;rounded=1;absoluteArcSize=1;arcSize=2;fontSize=10;fontColor=#999999;align=left;html=1;" parent="1" vertex="1">
                    <mxGeometry x="370" y="380" width="171" height="44" as="geometry"/>
                </mxCell>
                <mxCell id="FR1XyxJ5QNdVu9Rfvc06-523" value="post API" style="dashed=0;connectable=0;html=1;fillColor=#757575;strokeColor=none;shape=mxgraph.gcp2.frontend_platform_services;part=1;labelPosition=right;verticalLabelPosition=middle;align=left;verticalAlign=middle;spacingLeft=5;fontColor=#000000;fontSize=12;" parent="FR1XyxJ5QNdVu9Rfvc06-522" vertex="1">
                    <mxGeometry y="0.5" width="32" height="32" relative="1" as="geometry">
                        <mxPoint x="5" y="-16" as="offset"/>
                    </mxGeometry>
                </mxCell>
                <mxCell id="FR1XyxJ5QNdVu9Rfvc06-541" value="user database" style="text;html=1;align=center;verticalAlign=middle;resizable=0;points=[];autosize=1;strokeColor=none;fillColor=none;" parent="1" vertex="1">
                    <mxGeometry x="790" y="303.5" width="90" height="20" as="geometry"/>
                </mxCell>
                <mxCell id="FR1XyxJ5QNdVu9Rfvc06-542" value="post database" style="text;html=1;align=center;verticalAlign=middle;resizable=0;points=[];autosize=1;strokeColor=none;fillColor=none;" parent="1" vertex="1">
                    <mxGeometry x="790" y="369.5" width="90" height="20" as="geometry"/>
                </mxCell>
                <mxCell id="FR1XyxJ5QNdVu9Rfvc06-546" value="" style="group" parent="1" vertex="1" connectable="0">
                    <mxGeometry x="722" y="356.5" width="50" height="50" as="geometry"/>
                </mxCell>
                <mxCell id="FR1XyxJ5QNdVu9Rfvc06-537" value="" style="dashed=0;outlineConnect=0;html=1;align=center;labelPosition=center;verticalLabelPosition=bottom;verticalAlign=top;shape=mxgraph.weblogos.mongodb" parent="FR1XyxJ5QNdVu9Rfvc06-546" vertex="1">
                    <mxGeometry y="23.80000000000001" width="20" height="26.2" as="geometry"/>
                </mxCell>
                <mxCell id="FR1XyxJ5QNdVu9Rfvc06-538" value="" style="image;html=1;image=img/lib/clip_art/computers/Database_128x128.png" parent="FR1XyxJ5QNdVu9Rfvc06-546" vertex="1">
                    <mxGeometry x="10" width="40" height="46" as="geometry"/>
                </mxCell>
                <mxCell id="FR1XyxJ5QNdVu9Rfvc06-547" value="" style="group" parent="1" vertex="1" connectable="0">
                    <mxGeometry x="720" y="292.5" width="50" height="50" as="geometry"/>
                </mxCell>
                <mxCell id="FR1XyxJ5QNdVu9Rfvc06-535" value="" style="dashed=0;outlineConnect=0;html=1;align=center;labelPosition=center;verticalLabelPosition=bottom;verticalAlign=top;shape=mxgraph.weblogos.mongodb" parent="FR1XyxJ5QNdVu9Rfvc06-547" vertex="1">
                    <mxGeometry y="23.80000000000001" width="20" height="26.2" as="geometry"/>
                </mxCell>
                <mxCell id="FR1XyxJ5QNdVu9Rfvc06-536" value="" style="image;html=1;image=img/lib/clip_art/computers/Database_128x128.png" parent="FR1XyxJ5QNdVu9Rfvc06-547" vertex="1">
                    <mxGeometry x="10" width="40" height="46" as="geometry"/>
                </mxCell>
                <mxCell id="FR1XyxJ5QNdVu9Rfvc06-548" value="" style="group" parent="1" vertex="1" connectable="0">
                    <mxGeometry x="722" y="200" width="50" height="50" as="geometry"/>
                </mxCell>
                <mxCell id="FR1XyxJ5QNdVu9Rfvc06-533" value="" style="dashed=0;outlineConnect=0;html=1;align=center;labelPosition=center;verticalLabelPosition=bottom;verticalAlign=top;shape=mxgraph.weblogos.mongodb" parent="FR1XyxJ5QNdVu9Rfvc06-548" vertex="1">
                    <mxGeometry y="23.799999999999997" width="20" height="26.2" as="geometry"/>
                </mxCell>
                <mxCell id="FR1XyxJ5QNdVu9Rfvc06-534" value="" style="image;html=1;image=img/lib/clip_art/computers/Database_128x128.png" parent="FR1XyxJ5QNdVu9Rfvc06-548" vertex="1">
                    <mxGeometry x="10" width="40" height="46" as="geometry"/>
                </mxCell>
                <mxCell id="510" value="autentication database" style="text;html=1;align=center;verticalAlign=middle;resizable=0;points=[];autosize=1;strokeColor=none;fillColor=none;" vertex="1" parent="1">
                    <mxGeometry x="776" y="215" width="140" height="20" as="geometry"/>
                </mxCell>
                <mxCell id="511" value="JWT" style="edgeStyle=orthogonalEdgeStyle;rounded=0;html=1;labelBackgroundColor=none;startArrow=blockThin;startFill=1;endArrow=blockThin;endFill=1;jettySize=auto;orthogonalLoop=1;strokeColor=#4284F3;strokeWidth=2;fontSize=10;fontColor=#999999;align=center;dashed=0;endSize=4;startSize=4;exitX=1;exitY=0.25;exitDx=0;exitDy=0;entryX=0.793;entryY=1.034;entryDx=0;entryDy=0;entryPerimeter=0;" edge="1" parent="1" source="497" target="FR1XyxJ5QNdVu9Rfvc06-516">
                    <mxGeometry x="0.3235" relative="1" as="geometry">
                        <mxPoint x="550" y="322" as="sourcePoint"/>
                        <mxPoint x="380" y="250" as="targetPoint"/>
                        <Array as="points">
                            <mxPoint x="560" y="311"/>
                        </Array>
                        <mxPoint as="offset"/>
                    </mxGeometry>
                </mxCell>
                <mxCell id="512" value="JWT" style="edgeStyle=orthogonalEdgeStyle;rounded=0;html=1;labelBackgroundColor=none;startArrow=blockThin;startFill=1;endArrow=blockThin;endFill=1;jettySize=auto;orthogonalLoop=1;strokeColor=#4284F3;strokeWidth=2;fontSize=10;fontColor=#999999;align=center;dashed=0;endSize=4;startSize=4;entryX=0.793;entryY=1.034;entryDx=0;entryDy=0;entryPerimeter=0;" edge="1" parent="1" source="FR1XyxJ5QNdVu9Rfvc06-522">
                    <mxGeometry x="0.7391" relative="1" as="geometry">
                        <mxPoint x="550" y="410" as="sourcePoint"/>
                        <mxPoint x="594.3199999999999" y="252.495" as="targetPoint"/>
                        <Array as="points">
                            <mxPoint x="594" y="410"/>
                        </Array>
                        <mxPoint as="offset"/>
                    </mxGeometry>
                </mxCell>
                <mxCell id="514" value="" style="edgeStyle=orthogonalEdgeStyle;rounded=0;orthogonalLoop=1;jettySize=auto;html=1;" edge="1" parent="1">
                    <mxGeometry relative="1" as="geometry">
                        <mxPoint x="725" y="225" as="targetPoint"/>
                        <mxPoint x="610" y="224.5" as="sourcePoint"/>
                        <Array as="points">
                            <mxPoint x="725" y="224.5"/>
                        </Array>
                    </mxGeometry>
                </mxCell>
            </root>
        </mxGraphModel>
    </diagram>
</mxfile>